<svg width="32" height="22" viewBox="0 0 32 22" fill="none" xmlns="http://www.w3.org/2000/svg">
<g clip-path="url(#clip0_902_1504)">
<path d="M19.4594 2.5896H26.9996V4.42113H19.4594V2.5896ZM11.9038 9.83629C13.5706 9.03784 14.4437 7.82311 14.4437 5.94616C14.4437 2.23388 11.6845 1.33325 8.49829 1.33325H-0.270508V19.9665H8.74398C12.123 19.9665 15.2941 18.3393 15.2941 14.5552C15.2941 12.2165 14.1904 10.4872 11.9038 9.83629ZM3.81909 4.51195H7.65543C9.13327 4.51195 10.4599 4.92444 10.4599 6.64246C10.4599 8.22423 9.42808 8.85997 7.96536 8.85997H3.81909V4.51195ZM8.18458 16.803H3.8153V11.6716H8.27151C10.0706 11.6716 11.2083 12.4247 11.2083 14.3319C11.2083 16.2089 9.85141 16.803 8.18458 16.803ZM29.9479 13.4161C29.9479 9.42382 27.6158 6.09754 23.3977 6.09754C19.2967 6.09754 16.5074 9.18919 16.5074 13.2421C16.5074 17.4425 19.1493 20.3261 23.3977 20.3261C26.6142 20.3261 28.6967 18.8767 29.6983 15.785H26.4366C26.0812 16.9392 24.6375 17.5447 23.5148 17.5447C21.3454 17.5447 20.2114 16.2732 20.2114 14.1124H29.9214C29.9328 13.8892 29.9479 13.6545 29.9479 13.4161ZM20.2114 11.7738C20.3285 9.99901 21.5116 8.89026 23.2805 8.89026C25.1401 8.89026 26.0699 9.98388 26.2323 11.7738H20.2114Z" fill="#797979"/>
</g>
<defs>
<clipPath id="clip0_902_1504">
<rect width="32" height="22" fill="white"/>
</clipPath>
</defs>
</svg>
