<svg width="19" height="19" viewBox="0 0 19 19" fill="none" xmlns="http://www.w3.org/2000/svg">
<path d="M9.69376 6.52305C8.02344 6.52305 6.66033 7.91466 6.66033 9.61992C6.66033 11.3252 8.02344 12.7168 9.69376 12.7168C11.3641 12.7168 12.7273 11.3252 12.7273 9.61992C12.7273 7.91466 11.3641 6.52305 9.69376 6.52305ZM18.7918 9.61992C18.7918 8.33749 18.8032 7.06668 18.7326 5.78658C18.662 4.2997 18.3298 2.9801 17.2648 1.89284C16.1975 0.803238 14.9073 0.466368 13.4509 0.394347C12.1947 0.322327 10.9499 0.333943 9.69604 0.333943C8.43988 0.333943 7.19511 0.322327 5.94123 0.394347C4.48482 0.466368 3.19224 0.80556 2.12725 1.89284C1.05997 2.98244 0.729998 4.2997 0.659453 5.78658C0.588908 7.06901 0.600286 8.33981 0.600286 9.61992C0.600286 10.9 0.588908 12.1732 0.659453 13.4532C0.729998 14.9402 1.06224 16.2598 2.12725 17.347C3.19452 18.4366 4.48482 18.7735 5.94123 18.8455C7.19738 18.9175 8.44216 18.9059 9.69604 18.9059C10.9522 18.9059 12.197 18.9175 13.4509 18.8455C14.9073 18.7735 16.1999 18.4343 17.2648 17.347C18.3322 16.2574 18.662 14.9402 18.7326 13.4532C18.8054 12.1732 18.7918 10.9023 18.7918 9.61992ZM9.69376 14.3848C7.1109 14.3848 5.02642 12.2568 5.02642 9.61992C5.02642 6.98305 7.1109 4.85496 9.69376 4.85496C12.2766 4.85496 14.3612 6.98305 14.3612 9.61992C14.3612 12.2568 12.2766 14.3848 9.69376 14.3848ZM14.5523 5.77264C13.9493 5.77264 13.4622 5.27546 13.4622 4.65981C13.4622 4.04416 13.9493 3.54698 14.5523 3.54698C15.1553 3.54698 15.6423 4.04416 15.6423 4.65981C15.6425 4.806 15.6143 4.95078 15.5597 5.08589C15.505 5.22098 15.4247 5.34373 15.3235 5.4471C15.2222 5.55048 15.1019 5.63244 14.9696 5.6883C14.8373 5.74417 14.6954 5.77282 14.5523 5.77264Z" fill="#797979"/>
</svg>
