<svg width="37" height="30" viewBox="0 0 37 30" fill="none" xmlns="http://www.w3.org/2000/svg">
<path fill-rule="evenodd" clip-rule="evenodd" d="M32.2039 1.19067H4.79653C3.25325 1.19067 1.93978 2.23285 1.51495 3.65331C1.66581 3.67519 1.81393 3.73201 1.94703 3.8259L18.5002 15.5026L35.0534 3.8259C35.1865 3.73201 35.3347 3.67519 35.4855 3.65332C35.0607 2.23286 33.7472 1.19067 32.2039 1.19067ZM35.6299 5.86682L19.0767 17.5435C18.731 17.7873 18.2694 17.7873 17.9238 17.5435L1.37061 5.86682V25.3573C1.37061 27.2561 2.91227 28.8097 4.79653 28.8097H32.2039C34.0882 28.8097 35.6299 27.2561 35.6299 25.3573V5.86682Z" fill="white" fill-opacity="0.8"/>
</svg>
