<svg width="32" height="32" viewBox="0 0 32 32" fill="none" xmlns="http://www.w3.org/2000/svg">
<path d="M19.2145 7.14275C20.6098 7.41499 21.8922 8.0974 22.8974 9.10266C23.9027 10.1079 24.5851 11.3903 24.8573 12.7856L19.2145 7.14275ZM19.2145 1.42847C22.1134 1.75052 24.8167 3.04872 26.8805 5.10991C28.9443 7.17109 30.2459 9.87276 30.5716 12.7713L19.2145 1.42847ZM29.143 24.1713V28.457C29.1447 28.8549 29.0632 29.2487 28.9038 29.6132C28.7444 29.9778 28.5106 30.305 28.2174 30.574C27.9243 30.843 27.5781 31.0477 27.2013 31.1752C26.8244 31.3026 26.425 31.35 26.0288 31.3142C21.6328 30.8365 17.4102 29.3344 13.7002 26.9285C10.2485 24.7351 7.32209 21.8087 5.12876 18.357C2.71444 14.6302 1.21196 10.387 0.743041 5.97132C0.707341 5.57628 0.75429 5.17812 0.880898 4.80222C1.00751 4.42631 1.211 4.08088 1.47842 3.78793C1.74584 3.49497 2.07133 3.26091 2.43417 3.10064C2.79701 2.94037 3.18924 2.85741 3.5859 2.85704H7.87161C8.56491 2.85021 9.23703 3.09572 9.7627 3.5478C10.2884 3.99988 10.6317 4.62768 10.7288 5.31418C10.9096 6.6857 11.2451 8.03236 11.7288 9.32847C11.921 9.83979 11.9626 10.3955 11.8486 10.9297C11.7347 11.464 11.47 11.9543 11.0859 12.3428L9.27161 14.157C11.3053 17.7335 14.2665 20.6948 17.843 22.7285L19.6573 20.9142C20.0457 20.5301 20.5361 20.2654 21.0704 20.1515C21.6046 20.0375 22.1603 20.0791 22.6716 20.2713C23.9677 20.755 25.3144 21.0904 26.6859 21.2713C27.3799 21.3692 28.0136 21.7188 28.4667 22.2535C28.9197 22.7882 29.1604 23.4707 29.143 24.1713Z" fill="white" fill-opacity="0.8"/>
</svg>
