<svg width="127" height="63" viewBox="0 0 127 63" fill="none" xmlns="http://www.w3.org/2000/svg">
<mask id="mask0_724_2892" style="mask-type:alpha" maskUnits="userSpaceOnUse" x="0" y="0" width="127" height="63">
<path d="M48.7888 22.2585C47.7344 22.1049 47.0315 22.1049 46.0649 22.5439C45.1203 22.6317 42.9456 23.4878 42.0889 25.2659C41.364 26.7585 41.8033 28.2293 42.3085 28.7341C42.3085 28.8439 43.2312 29.6561 42.3525 30.3805C41.2761 30.9732 39.8482 30.2488 39.5627 29.239C39.5627 30.161 40.0679 30.3146 40.024 30.8415C39.1892 31.4122 38.2007 30.7976 37.8053 29.8098C37.366 28.7781 37.3001 27.4171 37.5637 26.4073C37.9151 25.0683 39.0135 23.6634 40.3754 22.8073C41.32 22.2146 42.3745 21.8854 42.8577 21.9512C41.8912 22.4122 41.1663 23.1366 40.5951 24.0585C41.4958 23.2024 42.5502 22.1707 44.0659 21.7756C45.6256 21.4024 48.02 21.4902 48.7888 22.2585Z" fill="#033534"/>
<path d="M97.292 29.1073C96.8087 29.5463 96.3913 30.4024 96.2815 30.9732C95.9959 32.2683 96.6549 33.9805 97.8412 34.661C98.6759 35.1439 99.4228 35.4951 100.521 35.1659C102.454 36.4171 104.783 35.4293 106.298 34.1122C107.441 33.1463 108.122 31.8073 108.341 30.3585C108.473 29.5024 108.451 28.4268 108.254 27.7683C107.968 26.8463 107.309 26.1 106.738 25.5293C107.682 25.8366 108.891 26.5171 109.44 27.9C110.077 29.4805 109.857 31.1707 109.484 32.422C109.835 32.1585 110.209 31.2366 110.275 30.139C110.318 28.9976 110.011 28.0756 110.253 28.339C110.516 28.6463 111.417 30.161 111.527 31.6537C111.593 32.5537 111.153 33.761 110.802 34.4415C110.736 36.6585 107.946 38.3488 106.848 38.7878C103.619 40.1049 101.795 39.4463 100.521 39.0732C99.8841 38.8976 98.7198 38.4585 97.4238 37.2512C96.589 36.461 96.0618 35.3634 95.6884 34.1561C96.4353 35.1439 97.4238 35.8683 98.5441 36.1756C97.314 35.5171 95.9959 34.6829 95.6005 33.1024C95.1832 31.4122 96.2156 29.8098 97.2041 28.4707C97.5556 27.9878 97.8192 27.3951 99.2251 26.3634C99.9061 25.8585 101.861 25.0024 103.509 25.0024C104.387 25.0024 106.035 25.4415 106.716 26.1878C107.485 26.4293 107.99 27.922 108.056 28.7561C108.166 30.139 107.858 30.9512 107.551 31.5439C107.507 30.7317 107.353 29.6561 106.804 29.0195C106.167 28.2732 105.618 27.9439 104.849 27.6366C103.86 27.2415 102.828 27.2195 102.366 27.2634C103.201 27.4829 104.234 27.7244 104.343 28.8439C104.365 29.3049 103.86 29.6561 103.509 29.3049C103.399 28.7561 103.399 27.8781 102.718 27.7683C103.003 27.9439 103.157 28.2732 103.135 28.5585C101.993 28.4927 100.653 28.6902 99.5326 29.4585C97.5995 30.7537 97.5995 32.7073 97.8631 34.0024C97.0723 33.4976 96.633 32.2683 96.6769 31.2366C96.6549 30.0951 97.292 29.1293 97.292 29.1073Z" fill="#033534"/>
<path d="M71.7005 12.2488C71.4369 11.5024 71.0195 10.6902 70.2287 9.9439C68.9986 8.27561 67.6586 6.84878 65.2861 5.59756C62.7819 4.28049 59.2891 3.81951 56.2137 4.30244C52.3036 4.91707 49.4479 7.55122 48.4813 9.0439C47.8882 9.96585 47.8443 10.2512 47.7345 11.0415C47.7345 11.0634 47.7125 11.261 47.6905 11.3268C47.2292 11.8976 46.5263 13.2146 46.3066 14.3122C46.1089 15.3219 46.4604 16.7268 46.9436 17.2976C47.4049 17.8683 47.9541 18.1537 48.5692 18.2634C50.2387 18.4829 51.0734 17.7366 50.6561 17.0561C50.2607 16.5073 49.338 16.3976 48.8987 15.8049C48.6571 15.4756 48.2836 14.7512 48.4594 14.1805C48.6131 15.0585 49.1403 15.4976 49.8872 15.4317C49.8653 14.8829 50.1948 13.6756 50.5243 12.7756C51.1393 11.0634 52.699 9.72439 54.3026 9.83414C55.4669 7.79268 59.7944 7.70488 60.1898 7.66097C63.6166 7.2878 65.2861 8.20975 66.3845 8.84634C66.8458 9.10975 67.2851 9.61463 67.6146 9.76829C68.3615 10.0976 69.0205 10.3829 69.9212 11.5463C70.5143 12.3146 70.9536 13.8512 71.0635 13.961C71.8543 14.6634 71.8543 15.2341 72.0959 16.1561C72.2936 15.1463 72.1618 13.478 71.7005 12.2488Z" fill="#033534"/>
<path d="M98.4563 19.7122C98.8078 19.9976 99.0494 20.8098 98.9176 21.4244C98.7639 22.1049 97.7094 22.3024 97.4458 21.4244C97.2701 20.8976 97.6435 20.2171 96.8308 20.239C97.358 20.6561 96.8967 21.0073 96.655 20.9634C96.0839 20.8537 95.2491 20.5244 94.5242 20.5244C93.4259 20.5463 92.3934 21.0293 91.8003 21.5561C92.1737 20.7 92.8108 19.822 93.4918 19.0756C94.5462 17.9122 95.4029 17.3854 96.2596 17.1439C97.4898 17.0122 98.7858 17.2098 99.5986 17.6927C99.9061 17.8683 100.192 18.0878 100.302 18.1537C100.895 18.4829 101.246 18.922 101.422 19.5146C101.554 20.3268 101.246 21.4024 100.148 21.0512C99.5327 20.8537 99.2691 19.6683 98.4563 19.7122Z" fill="#033534"/>
<path d="M58.4323 55.8659C57.1582 54.9 55.1153 54.3073 53.0943 53.9561C51.8642 53.7366 49.997 53.8902 50.1947 52.1781C50.2606 51.7171 50.8757 51.0146 51.315 50.7951C52.0399 50.422 53.4897 50.3561 54.8078 50.5537C57.2241 50.9268 59.4648 52.1341 61.4858 52.9902C64.6051 54.3293 67.1533 54.0659 69.306 53.6268C71.5686 53.1659 73.2821 51.4537 73.8532 50.9927C74.4683 50.4878 75.0175 49.8512 75.5008 49.3463C74.5122 51.5415 73.0844 53.6488 71.0195 55.2293C68.9765 56.7659 66.692 57.6878 63.5946 58.1268C62.5182 58.2805 61.31 58.2366 60.3435 58.1049C57.9491 57.7976 55.2251 56.4366 52.9406 56.1512C52.3694 56.0854 51.7983 56.1073 51.7763 55.7341C51.7543 55.3171 52.9406 54.7683 54.654 54.8122C55.9281 54.8341 57.29 55.5366 58.4323 55.8659Z" fill="#033534"/>
<path d="M68.2297 12.3805C69.6136 14.5756 69.5477 16.8805 69.5477 16.9902C70.031 17.6049 69.9651 18.9658 69.9651 19.8439C69.9651 20.7439 69.372 22.8512 69.0864 23.0488C69.1303 23.4658 68.9766 23.9927 68.7569 24.4537C68.4713 25.1341 67.6146 26.2098 67.5707 26.3415C67.5267 26.5171 67.5926 26.8683 67.4608 27.8122C67.373 28.5585 67.1533 29.0634 66.9117 29.5902L70.3605 31.6098C70.9536 30.1171 71.3929 28.361 71.4149 27.1317C71.4369 26.3854 71.5028 25.3976 71.7225 24.7829C71.9861 24.0585 72.4693 22.7634 72.6011 20.8976C72.689 19.6024 72.2497 17.5829 71.7664 16.3976C71.6126 15.4756 71.2611 14.7732 70.7339 14.2244C70.712 14.1805 70.69 14.1366 70.668 14.0707C70.1628 12.2927 69.0205 10.9098 68.3395 10.5146C67.5707 10.0537 67.4608 10.2512 67.1753 9.96585C66.9117 9.70243 65.8353 8.91219 65.3959 8.69268C64.1218 8.05609 63.2212 8.05609 63.2212 8.05609C63.2212 8.05609 66.7799 10.0537 68.2297 12.3805Z" fill="#033534"/>
<path d="M67.9882 36.1537L64.8689 33.8268C62.6502 36.8342 58.3008 40.039 53.0726 41.9927C47.0536 44.2317 40.4855 44.2317 39.3651 44.1659C37.4101 44.0342 36.6193 43.3317 36.6193 43.3317C36.6193 43.3317 35.477 44.4732 32.2917 43.7707C29.0626 43.0683 25.9652 41.7951 22.9118 40.1927C18.2328 37.7561 16.2778 35.6488 15.0915 34.4634C14.762 34.1781 13.8614 33.1464 13.9053 32.6634C13.2243 32.3781 12.6532 31.9829 12.104 31.5878C10.2368 30.2268 8.58928 28.4488 7.29322 26.6268C6.45847 25.4415 5.71159 24.0146 5.64569 22.4342C5.55782 20.3707 6.59027 19.3829 8.01813 18.5488C9.35812 18.0439 11.2253 17.8903 12.6093 18.2854C11.7306 18.2195 10.6761 18.2854 9.73156 18.461C8.85288 18.6146 7.9742 18.9659 7.40306 19.4707C6.3047 20.4366 5.84339 21.2927 6.15093 22.8732C7.09552 21.5781 8.34764 20.1073 10.4345 20.3927C9.44599 20.5244 7.93026 21.0512 6.98568 22.4561C6.50241 23.1805 6.1729 23.6854 6.56831 24.6293C6.76601 25.1122 7.09552 25.661 7.44699 26.0342C7.29322 24.6293 8.01813 23.422 8.85288 22.8512C9.27026 22.5659 10.1489 22.2585 10.764 22.2805C11.423 22.3024 11.3132 22.522 11.5988 22.5439C12.0601 22.5878 12.4774 22.3903 12.9388 22.3903C14.081 22.4122 15.0915 22.6537 16.0361 23.1585C17.0246 23.6854 18.5843 24.322 19.441 26.0122C19.7046 26.0561 20.4295 26.6268 20.4295 27.1976C20.8249 27.439 21.2203 27.8342 21.1544 28.5146C21.1105 28.9756 20.781 29.1951 20.5394 29.5683C20.6712 29.9634 21.1984 29.7878 21.2643 29.722C21.8135 29.2171 21.9672 27.7244 21.6157 26.7146C21.1984 25.5951 20.9128 25.0244 19.8144 23.9268C18.2328 22.3683 17.0466 21.9512 15.9043 21.5561C17.5738 21.5561 19.9463 23.5976 20.1659 23.861C21.0885 24.9805 22.099 26.0781 22.1649 27.9439C22.2308 28.4927 22.3187 28.9756 22.8679 28.6464C23.3072 28.2951 23.3731 26.9781 23.1754 26.3634C22.9338 25.5951 22.4066 25.0024 21.9672 24.4098C20.8908 22.9171 19.5289 21.6 18.2548 20.7659C20.2977 21.4903 21.7695 23.4659 23.0875 25.3756C23.5269 25.2439 23.5928 24.7829 23.5049 24.2561C23.3951 23.7293 23.1095 22.9171 21.3741 21.161C19.8584 19.6024 18.0351 18.3293 14.0591 17.2098C11.7525 16.5732 7.24929 16.5293 5.40405 19.3171C3.99816 21.4464 4.52537 24.1464 5.03061 25.5512C5.46995 26.7805 6.1729 27.9878 6.89781 28.8659C7.29322 29.3488 8.36961 30.4464 8.61124 30.6659C9.18239 31.2366 11.0057 32.6415 11.2912 32.839C11.6866 33.0805 12.0381 33.2342 12.4335 33.5634C10.8958 32.9927 9.7096 32.1366 8.67715 31.2146C8.63321 31.1707 7.31519 29.9415 6.48044 28.8659C5.49192 27.5927 5.07455 26.6049 5.07455 26.6049C5.07455 26.6049 5.42602 27.8561 6.34864 29.4585C7.68863 31.7854 9.92927 34.4854 11.2693 35.9781C14.5643 39.6439 19.3092 44.4512 27.9203 47.3049C36.5314 50.1585 44.2199 49.4122 48.7451 48.3146C56.2578 46.4927 61.3981 42.8927 62.1889 42.2122C64.2319 40.4342 66.4725 38.3488 67.9882 36.1537Z" fill="#033534"/>
<path d="M121.807 29.4585C121.126 28.0756 119.018 27.3732 118.864 28.9098C118.732 30.1171 119.984 30.4683 120.05 32.1805C120.094 33.3878 119.523 34.7488 119.061 35.2537C119.435 34.1561 119.852 33.0585 119.501 31.6756C119.347 31.061 118.468 29.7878 117.656 30.2049C116.645 30.7317 117.721 32.2902 117.875 33.4098C117.963 34.0244 117.7 34.661 117.678 35.122C117.634 35.6707 117.568 36 117.48 36.5268C117.304 37.4488 116.623 38.239 116.03 38.5463C116.03 39.6 115.063 41.8171 114.009 43.1561C112.889 44.5829 111.087 45.8781 110.363 46.2732C109.308 46.8659 107.617 47.4146 106.65 47.5903C105.464 47.8098 104.036 47.9634 102.982 47.7659C104.893 47.8098 106.936 47.3707 108.605 46.6683C110.45 45.8781 111.703 45.022 112.823 43.8585C113.767 42.8268 114.558 41.6415 114.932 40.5C113.723 41.7293 110.824 43.5951 110.231 43.5073C109.572 44.0561 108.407 44.4073 106.98 44.7585C105.925 45.022 103.619 45.3732 101.751 44.9561C101.136 44.8024 101.158 44.561 100.829 44.6049C100.543 44.6268 100.675 44.7585 99.7964 45.0659C99.0714 45.3293 96.3256 45.1317 93.2721 44.3415C90.8997 43.7268 88.022 42.8049 83.4968 40.4342L84.1338 38.8756C85.1224 35.7146 86.1548 33.5634 86.4184 32.2463C86.8358 31.7854 88.3955 27.0878 89.5377 25.9902C89.5158 25.2878 89.9112 24.8927 90.1968 24.2561C90.4164 23.7951 91.0315 22.4342 91.1853 22.1927C91.339 21.9293 91.9981 20.5244 92.679 19.6683C93.4039 18.7683 94.3705 17.8463 94.9416 17.4732C93.36 17.561 91.4049 19.2512 90.7679 19.9976C90.1968 20.6561 89.8013 21.5342 89.0545 22.039C89.0325 22.2805 85.1443 28.361 84.9027 29.1732C84.1778 29.7439 82.0909 34.8366 80.7729 37.8439L80.4214 38.8098C79.8283 38.4805 79.2352 38.1293 78.5981 37.7561C76.4893 36.5049 74.3585 35.1878 73.7874 34.7927C72.6231 33.9805 71.5906 33.2342 70.9316 32.7073C69.8992 31.9171 66.2307 29.8537 65.6595 29.5024C63.8143 28.4268 60.1897 26.2976 58.037 25.222C55.335 23.861 52.5672 22.9171 51.9741 22.7854C51.2052 22.2146 49.7114 22.1488 48.7669 22.6756C47.6905 22.4561 45.9551 22.8951 45.7134 22.9829C43.9121 23.5317 42.4843 24.6951 42.1108 26.5171C44.5492 23.4659 49.8432 24.2781 52.1059 25.9683C53.9511 26.0781 57.9052 28.9756 58.037 29.239C59.0914 29.7 63.6166 32.4659 64.8687 33.2561C64.9127 33.2781 64.9566 33.3 65.0005 33.3439C65.1104 33.4098 65.1763 33.4756 65.1982 33.4756C66.2087 34.1561 68.8448 36.022 69.2621 36.3073C71.3929 37.7561 73.8313 39.3805 75.5227 40.4342C76.0939 40.7854 77.5437 41.6854 79.0375 42.5634C78.9935 42.6951 78.9276 42.8488 78.8617 43.0024C78.005 45.0439 76.0719 49.4561 75.1054 50.9927C73.7874 53.1439 72.7549 54.461 71.2611 55.6244C69.2402 57.2049 65.8133 58.5878 62.8258 58.6317C63.7045 58.8951 64.4294 59.0488 65.0664 59.0707C66.4943 59.1366 67.7684 58.9171 68.9326 58.6098C70.9316 58.061 73.326 56.6561 74.666 55.5366C77.6755 53.0122 79.5208 49.4561 80.4214 47.6341C80.663 47.1732 80.8827 46.7122 81.0804 46.2732L81.9591 44.1439C84.683 45.4829 89.0764 47.239 91.0535 47.7878C94.722 48.7756 99.5328 49.4781 103.992 49.3024C107.375 49.1707 109.945 48.5561 112.801 46.8878C115.481 45.3293 116.975 43.639 118.512 41.6854C120.182 39.5561 120.775 37.8659 121.61 35.6707C122.379 33.5634 122.73 31.3024 121.807 29.4585Z" fill="#033534"/>
</mask>
<g mask="url(#mask0_724_2892)">
<rect x="1.5" y="2.25006" width="127.5" height="60.75" fill="#3C3C3C"/>
</g>
</svg>
