<svg width="64" height="62" viewBox="0 0 64 62" fill="none" xmlns="http://www.w3.org/2000/svg">
<g clip-path="url(#clip0_724_2923)">
<path d="M2.44003 31.5926C2.51249 31.5161 2.60015 31.4557 2.69735 31.4153C2.79455 31.375 2.89912 31.3554 3.00432 31.3581C3.10909 31.3568 3.21298 31.3774 3.30939 31.4185C3.40581 31.4596 3.49266 31.5203 3.56443 31.5968C3.64074 31.6693 3.701 31.7572 3.74132 31.8546C3.78164 31.9519 3.80112 32.0567 3.79851 32.1621C3.80036 32.2674 3.78052 32.3719 3.74025 32.4692C3.69998 32.5665 3.64013 32.6544 3.56443 32.7275C3.49091 32.8025 3.40305 32.8619 3.3061 32.9022C3.20915 32.9425 3.1051 32.9628 3.00014 32.962C2.89467 32.9638 2.78998 32.9435 2.6928 32.9024C2.59563 32.8613 2.5081 32.8003 2.43585 32.7233C2.36036 32.65 2.30064 32.5621 2.26038 32.4649C2.22012 32.3676 2.20018 32.2632 2.20177 32.1579C2.19995 32.0522 2.22021 31.9474 2.26124 31.85C2.30227 31.7526 2.36317 31.665 2.44003 31.5926Z" fill="#3C3C3C"/>
<path d="M7.91176 21.1273L7.28477 23.2212L7.05905 23.15L7.20535 22.66L3.31383 21.6675V21.7052L6.83752 24.7497L6.77064 24.9759L2.17271 25.5789V25.625L3.25113 25.9893C3.66913 26.1275 4.04532 26.2532 4.42569 26.3662C5.20734 26.6007 5.73401 26.7473 6.00989 26.785L6.15201 26.295L6.37772 26.362L5.80089 28.2968L5.57518 28.2298L5.70057 27.811C4.71871 27.2971 3.69853 26.8603 2.64922 26.5044L0.989787 25.9139L0.864388 26.3327L0.638672 26.2699L1.22386 24.2891C1.75947 24.3582 2.30171 24.3582 2.83732 24.2891L4.85205 24.0169V23.9792L3.33055 22.614C2.9328 22.2479 2.487 21.9379 2.00551 21.6927L2.57398 19.7872L2.7997 19.8542L2.6743 20.273L7.56065 21.4749L7.68604 21.0561L7.91176 21.1273Z" fill="#3C3C3C"/>
<path d="M12.8524 13.895L11.5065 15.6706L11.3184 15.5283L11.6151 15.1346L9.07792 13.225L9.37052 16.4956L10.1563 17.0819L10.4531 16.6883L10.6412 16.8265L9.312 18.6021L9.1239 18.4597L9.42068 18.0661L5.39958 15.0425L5.11534 15.4236L4.92725 15.2812L6.22721 13.5433L6.4153 13.6856L6.13525 14.0625L8.64321 15.9429L8.35061 12.6722L7.60241 12.111L7.32235 12.4879L7.13425 12.3456L8.43421 10.6118L8.62231 10.7542L8.33807 11.1311L12.3592 14.1505L12.6559 13.7526L12.8524 13.895Z" fill="#3C3C3C"/>
<path d="M19.6074 8.65613L17.8644 9.87477L17.7265 9.68213L18.1445 9.37642L14.4577 6.99777L14.905 8.88227C15.0456 9.6605 15.3095 10.4112 15.6866 11.106L16.1339 10.7919L16.2677 10.9845L14.6918 12.0901L14.5622 11.9017C14.7253 11.7886 14.7002 11.2567 14.4954 10.3103L13.5967 6.14346L14.4327 5.5488L19.2354 8.62681L19.4737 8.46349L19.6074 8.65613Z" fill="#3C3C3C"/>
<path d="M27.5282 5.86288L25.4925 6.47849L25.4257 6.25235L25.9356 6.0974L23.1727 2.67599L23.0305 4.60655C22.9054 5.38324 22.9054 6.17501 23.0305 6.9517L23.553 6.79676L23.6199 7.01871L21.7766 7.57987L21.7139 7.35792C21.902 7.30348 22.0483 6.79257 22.1319 5.82519L22.5499 1.58298L23.5447 1.28564L27.1394 5.70375L27.4153 5.61999L27.5282 5.86288Z" fill="#3C3C3C"/>
<path d="M35.9884 5.63674L33.773 5.58649V5.35198H34.2662L34.3373 2.17345L31.8628 4.32597V5.30591H32.356V5.54043L30.1406 5.49017V5.25566H30.6339L30.7342 0.247079H30.266V0L32.4312 0.0502533V0.284769H31.9589L31.8878 3.41722L34.3665 1.25633V0.322459H33.8984V0.0837555L36.0636 0.134009V0.368524H35.5913L35.4784 5.39385H35.9716L35.9884 5.63674Z" fill="#3C3C3C"/>
<path d="M45.364 3.43816C45.5145 3.78797 45.5922 4.16489 45.5922 4.54583C45.5922 4.92677 45.5145 5.30369 45.364 5.6535C45.2487 6.01811 45.0596 6.35501 44.8087 6.64321C44.5577 6.93141 44.2501 7.16472 43.9052 7.32861C43.5313 7.48521 43.1295 7.5641 42.7243 7.5605C42.3191 7.5569 41.9188 7.47089 41.5477 7.30767C41.1594 7.19089 40.7986 6.99681 40.4868 6.73705C40.1751 6.47728 39.9189 6.15717 39.7336 5.79588C39.5786 5.4473 39.496 5.07073 39.491 4.68914C39.4859 4.30754 39.5585 3.92892 39.7044 3.57636C39.8201 3.21258 40.0088 2.87633 40.259 2.58827C40.5091 2.30021 40.8154 2.06642 41.159 1.90125C41.5339 1.74543 41.9365 1.66733 42.3424 1.67165C42.7483 1.67597 43.1491 1.76262 43.5206 1.92638C43.9148 2.03851 44.2818 2.23055 44.5989 2.4906C44.916 2.75065 45.1764 3.07317 45.364 3.43816ZM43.2364 6.55805C43.7054 6.23704 44.0517 5.76605 44.2187 5.22215C44.4503 4.69426 44.4917 4.10213 44.3357 3.54705C44.2558 3.31278 44.1218 3.10076 43.9446 2.92827C43.7673 2.75579 43.5519 2.62773 43.3158 2.55454C43.0886 2.45605 42.8412 2.41304 42.5942 2.42905C42.3471 2.44507 42.1073 2.51966 41.8946 2.64667C41.4272 2.96838 41.0824 3.43929 40.9165 3.98257C40.6738 4.5065 40.6206 5.09875 40.7661 5.65768C40.8573 5.88517 40.9952 6.09097 41.1707 6.26181C41.3462 6.43266 41.5555 6.56475 41.7851 6.64959C42.0147 6.73442 42.2595 6.7701 42.5037 6.75434C42.7479 6.73857 42.9861 6.67171 43.203 6.55805H43.2364Z" fill="#3C3C3C"/>
<path d="M51.4456 13.3381L49.7235 11.9477L49.8698 11.7635L50.2543 12.0733L51.6672 10.3229L49.7695 8.79432L48.3608 10.549L48.7454 10.8589L48.5991 11.0432L46.877 9.63188L47.0233 9.44761L47.4078 9.7617L50.5637 5.86288L50.1958 5.56555L50.3421 5.38129L52.0141 6.7465L51.8636 6.92658L51.5 6.63343L50.1875 8.26247L52.081 9.79101L53.3935 8.16197L53.0256 7.86464L53.1761 7.68456L54.8481 9.04559L54.7018 9.22985L54.334 8.93252L51.2157 12.8439L51.6003 13.1538L51.4456 13.3381Z" fill="#3C3C3C"/>
<path d="M56.5454 20.3274L56.3323 20.4363C56.2737 20.3358 56.1985 20.1934 56.1024 20.0175C55.8538 19.5797 55.7038 19.0928 55.6626 18.5908C55.6214 18.0888 55.6902 17.5838 55.8641 17.1112C56.0146 16.726 56.1985 16.2946 56.4158 15.8172L56.0982 15.7418L54.4596 16.8013L54.7272 17.2201L54.5307 17.3499L53.3311 15.4864L53.5275 15.3566L53.795 15.7753L58.0168 13.0449L57.7618 12.6471L57.9582 12.5172L59.1579 14.3264L58.9573 14.4562L58.7023 14.0374L56.4158 15.5157V15.545C56.8589 15.6539 57.2895 15.7418 57.7033 15.8046C58.3958 15.9277 59.1056 15.9149 59.7932 15.767L59.5257 15.3482L59.7222 15.2184L61.0556 17.2871L60.8717 17.4086C60.6794 17.107 60.0022 16.8642 58.8402 16.6799L57.4441 16.4496L56.8422 18.1791C56.5914 18.8994 56.4242 19.4689 56.3114 19.8794C56.3782 20.0343 56.4535 20.1767 56.5454 20.3274Z" fill="#3C3C3C"/>
<path d="M58.9528 28.3219L58.4052 26.228L58.6351 26.1694L58.773 26.7012L60.236 25.5957L59.7511 23.7489C59.1664 23.683 58.5761 23.683 57.9914 23.7489L58.1335 24.2807L57.9036 24.3393L57.4146 22.4883L57.6361 22.4297C57.6862 22.6224 58.192 22.7857 59.1492 22.9155L63.3668 23.4976L63.6385 24.532L59.1074 27.9743L59.1827 28.2549L58.9528 28.3219ZM60.771 25.2062L62.2884 24.0588C61.5945 23.9555 60.9689 23.8787 60.4116 23.8284L60.771 25.2062Z" fill="#3C3C3C"/>
<path d="M62.4014 32.5934C62.3275 32.6681 62.2396 32.7274 62.1428 32.7679C62.0459 32.8084 61.942 32.8292 61.8371 32.8292C61.7321 32.8292 61.6282 32.8084 61.5314 32.7679C61.4345 32.7274 61.3466 32.6681 61.2728 32.5934C61.1962 32.5206 61.1352 32.433 61.0935 32.3358C61.0518 32.2386 61.0303 32.1339 61.0304 32.0281C61.0289 31.9226 61.0484 31.8179 61.0879 31.7201C61.1274 31.6223 61.186 31.5333 61.2603 31.4585C61.3331 31.3824 61.4208 31.3219 61.5178 31.2808C61.6148 31.2398 61.7192 31.219 61.8245 31.2198C61.93 31.2169 62.035 31.2358 62.1328 31.2754C62.2307 31.3151 62.3192 31.3746 62.393 31.4502C62.5426 31.6002 62.6266 31.8035 62.6266 32.0155C62.6266 32.2275 62.5426 32.4309 62.393 32.5809L62.4014 32.5934Z" fill="#3C3C3C"/>
<path d="M61.4691 38.7495L61.3521 39.3023L59.4837 38.8835L59.4293 39.1431L58.9152 39.0301L58.9737 38.7746L58.376 38.6448L58.493 38.1046L59.0866 38.2302L59.3583 36.9739L59.8682 37.0828L61.4691 38.7495ZM59.6007 38.3558L60.5704 38.5652L59.7345 37.6942L59.6007 38.3558Z" fill="#3C3C3C"/>
<path d="M59.7306 41.9196L59.9187 41.4087C60.1021 41.4957 60.2498 41.6437 60.3367 41.8275C60.392 41.9417 60.4231 42.0661 60.4281 42.1929C60.4332 42.3198 60.412 42.4463 60.3659 42.5645C60.2961 42.7785 60.1463 42.9571 59.9479 43.0629C59.8554 43.1117 59.7536 43.1406 59.6493 43.1478C59.5449 43.155 59.4402 43.1404 59.3418 43.1048C59.222 43.0598 59.1175 42.9813 59.0409 42.8786C58.9607 42.7652 58.913 42.632 58.9029 42.4933C58.7988 42.6354 58.6525 42.7409 58.4849 42.7949C58.3213 42.8424 58.1466 42.835 57.9875 42.7739C57.8672 42.7319 57.7572 42.6645 57.6649 42.5764C57.5726 42.4883 57.5002 42.3814 57.4525 42.263C57.3997 42.1363 57.3726 42.0004 57.3726 41.8631C57.3726 41.7258 57.3997 41.5899 57.4525 41.4631C57.4919 41.3398 57.5555 41.2255 57.6394 41.127C57.7234 41.0285 57.8261 40.9477 57.9416 40.8894C58.1834 40.7775 58.4591 40.764 58.7107 40.8517L58.5184 41.3794C58.3929 41.3462 58.2598 41.3581 58.1422 41.4129C58.0423 41.4691 57.9665 41.5599 57.929 41.6683C57.9051 41.7239 57.8927 41.7837 57.8927 41.8442C57.8927 41.9047 57.9051 41.9646 57.929 42.0201C57.9532 42.078 57.9901 42.1297 58.0368 42.1713C58.0836 42.213 58.1392 42.2436 58.1994 42.2609C58.2596 42.2782 58.3229 42.2817 58.3846 42.2712C58.4463 42.2607 58.5049 42.2364 58.556 42.2002C58.7009 42.0971 58.8093 41.9504 58.8653 41.7814L59.3209 41.9447C59.287 42.0444 59.2715 42.1494 59.275 42.2546C59.2807 42.3228 59.3053 42.3881 59.346 42.4431C59.38 42.4951 59.4298 42.5348 59.4881 42.5562C59.5223 42.5717 59.5593 42.5797 59.5968 42.5797C59.6343 42.5797 59.6713 42.5717 59.7055 42.5562C59.7786 42.5167 59.8339 42.4508 59.8601 42.3719C59.8853 42.2972 59.8853 42.2163 59.8601 42.1416C59.8449 42.0544 59.799 41.9756 59.7306 41.9196Z" fill="#3C3C3C"/>
<path d="M57.9038 46.3335C57.8207 46.2915 57.7473 46.2325 57.6883 46.1604C57.6293 46.0883 57.5859 46.0046 57.561 45.9147C57.5328 45.8273 57.5227 45.7351 57.5313 45.6436C57.5399 45.5522 57.5671 45.4634 57.6112 45.3829C57.6528 45.2994 57.7115 45.2256 57.7835 45.1664C57.8556 45.1072 57.9393 45.064 58.0292 45.0395C58.117 45.0104 58.2099 44.9998 58.302 45.0084C58.3941 45.0171 58.4834 45.0448 58.5642 45.0898C58.647 45.1316 58.7199 45.1906 58.7783 45.2628C58.8367 45.335 58.8791 45.4187 58.9028 45.5085C58.9301 45.5961 58.9397 45.6882 58.9311 45.7795C58.9225 45.8708 58.8958 45.9595 58.8526 46.0404C58.8107 46.1216 58.7532 46.1937 58.6835 46.2525C58.6137 46.3114 58.533 46.356 58.446 46.3836C58.3591 46.4112 58.2675 46.4214 58.1766 46.4135C58.0857 46.4056 57.9973 46.3799 57.9163 46.3377L57.9038 46.3335ZM58.0125 46.1199C58.1231 46.178 58.2517 46.1915 58.3719 46.1576C58.4298 46.142 58.4836 46.1141 58.5298 46.0758C58.576 46.0375 58.6134 45.9897 58.6395 45.9357C58.668 45.8814 58.6853 45.8218 58.6903 45.7607C58.6953 45.6995 58.688 45.638 58.6687 45.5797C58.6508 45.5211 58.6212 45.4668 58.5817 45.42C58.5422 45.3732 58.4936 45.3349 58.4388 45.3075C58.3846 45.279 58.3252 45.2616 58.2642 45.2566C58.2031 45.2516 58.1417 45.2589 58.0835 45.2782C58.0249 45.2945 57.9702 45.3225 57.9228 45.3607C57.8753 45.3988 57.8362 45.4463 57.8077 45.5002C57.7788 45.5529 57.7616 45.6112 57.7573 45.6712C57.753 45.7312 57.7616 45.7914 57.7826 45.8477C57.799 45.9053 57.8267 45.9589 57.864 46.0057C57.9013 46.0524 57.9475 46.0912 57.9999 46.1199H58.0125Z" fill="#3C3C3C"/>
<path d="M56.8629 49.2943C56.7525 49.4605 56.5954 49.5902 56.4114 49.667C56.2127 49.7286 56 49.7286 55.8012 49.667C55.4994 49.5795 55.2161 49.4376 54.9652 49.2482C54.7009 49.0798 54.47 48.864 54.2839 48.6117C54.165 48.4479 54.0967 48.2528 54.0874 48.0505C54.0924 47.8539 54.1581 47.6637 54.2755 47.5061C54.3852 47.3383 54.5424 47.2071 54.7269 47.1292C54.9192 47.0716 55.1241 47.0716 55.3163 47.1292C55.6198 47.2121 55.904 47.3545 56.1523 47.548C56.5114 47.7541 56.8021 48.0613 56.9883 48.4316C57.0416 48.5743 57.0581 48.7283 57.0362 48.8791C57.0142 49.0299 56.9546 49.1727 56.8629 49.2943ZM56.4156 49.0011C56.4685 48.924 56.4922 48.8304 56.4825 48.7373C56.4621 48.617 56.4051 48.5059 56.3195 48.419C56.1694 48.2601 56.001 48.1195 55.8179 48.0003C55.61 47.8301 55.3628 47.7149 55.0989 47.6652C55.028 47.6559 54.9558 47.6662 54.8902 47.695C54.8247 47.7238 54.7682 47.77 54.7269 47.8286C54.6882 47.8846 54.6658 47.9502 54.6621 48.0182C54.6584 48.0863 54.6736 48.154 54.706 48.2138C55.0299 48.6696 55.4985 49.0018 56.0353 49.1561C56.107 49.1648 56.1797 49.1547 56.2464 49.1268C56.313 49.0989 56.3714 49.0542 56.4156 48.997V49.0011Z" fill="#3C3C3C"/>
<path d="M54.8107 51.8279L53.4856 53.2601L53.2683 53.0549L52.1689 50.1989L52.6622 50.0062L53.5776 52.3807L54.4136 51.4678L54.8107 51.8279Z" fill="#3C3C3C"/>
<path d="M51.0444 54.2108L51.2827 54.0056L51.9222 54.8012L51.5042 55.153L51.0444 54.2108Z" fill="#3C3C3C"/>
<path d="M49.0969 56.9537C48.9354 57.0721 48.7409 57.1365 48.5409 57.138C48.334 57.1313 48.1341 57.0611 47.9683 56.937C47.4909 56.5369 47.1359 56.01 46.9442 55.4168C46.8845 55.2217 46.8845 55.0131 46.9442 54.818C47.0181 54.6353 47.1484 54.4812 47.3162 54.3782C47.4766 54.2605 47.6691 54.1947 47.868 54.1898C48.0696 54.1968 48.2646 54.2639 48.4281 54.3824C48.6728 54.5671 48.8811 54.7957 49.0425 55.0567C49.298 55.3812 49.4561 55.772 49.4981 56.1832C49.502 56.3352 49.4672 56.4856 49.397 56.6204C49.3268 56.7552 49.2235 56.8699 49.0969 56.9537ZM48.7834 56.5349C48.8613 56.4845 48.9179 56.4069 48.9422 56.3172C48.9691 56.1962 48.9559 56.0698 48.9046 55.957C48.8224 55.7535 48.7157 55.5609 48.5869 55.3833C48.4571 55.1489 48.2683 54.9525 48.0393 54.8138C47.9773 54.7729 47.9046 54.7511 47.8303 54.7511C47.7561 54.7511 47.6834 54.7729 47.6213 54.8138C47.565 54.852 47.5203 54.905 47.4923 54.9671C47.4642 55.0293 47.4539 55.0979 47.4625 55.1655C47.512 55.4441 47.6298 55.706 47.8053 55.9277C47.9414 56.1694 48.1335 56.3747 48.3654 56.5266C48.427 56.5677 48.4991 56.5904 48.5731 56.5918C48.6472 56.5933 48.7201 56.5736 48.7834 56.5349Z" fill="#3C3C3C"/>
<path d="M45.4603 59.0811H44.9462V57.942C44.8403 57.9985 44.7235 58.0314 44.6038 58.0387C44.4841 58.0459 44.3642 58.0272 44.2523 57.9839C44.1355 57.9425 44.028 57.8782 43.9362 57.7948C43.8443 57.7114 43.7699 57.6106 43.7173 57.4981C43.662 57.3887 43.6298 57.269 43.6226 57.1465C43.6154 57.0241 43.6334 56.9014 43.6755 56.7862C43.7158 56.67 43.7787 56.5629 43.8605 56.4711C43.9423 56.3792 44.0413 56.3045 44.1521 56.2512C44.2628 56.1979 44.3829 56.167 44.5055 56.1604C44.6282 56.1537 44.7509 56.1714 44.8667 56.2125C44.9797 56.2501 45.084 56.3099 45.1737 56.3882C45.2634 56.4666 45.3367 56.562 45.3892 56.669C45.4283 56.7544 45.4564 56.8445 45.4728 56.937C45.4859 57.093 45.4859 57.2499 45.4728 57.406L45.4603 59.0811ZM44.7413 57.4437C44.786 57.4223 44.8257 57.3919 44.8581 57.3545C44.8904 57.317 44.9147 57.2732 44.9294 57.2259C44.9587 57.124 44.9482 57.0147 44.9002 56.9202C44.8533 56.8234 44.7709 56.7484 44.6703 56.7108C44.6257 56.6902 44.5773 56.6795 44.5282 56.6795C44.4791 56.6795 44.4306 56.6902 44.3861 56.7108C44.3399 56.7318 44.2989 56.7624 44.2657 56.8007C44.2325 56.839 44.208 56.8841 44.1938 56.9328C44.1621 57.0355 44.1711 57.1464 44.2189 57.2427C44.2405 57.291 44.2716 57.3344 44.3104 57.3704C44.3492 57.4064 44.3948 57.4342 44.4446 57.4521C44.492 57.4712 44.5428 57.4803 44.5938 57.4788C44.6449 57.4774 44.6951 57.4654 44.7413 57.4437Z" fill="#3C3C3C"/>
<path d="M41.2217 59.7009L41.5226 59.6004L41.8236 60.572L41.3095 60.7479L41.2217 59.7009ZM42.0075 59.4329L42.3043 59.3324L42.6094 60.304L42.0953 60.4799L42.0075 59.4329Z" fill="#3C3C3C"/>
<path d="M39.2321 61.2588L38.7013 61.3593L37.0837 59.6842L37.4557 61.6022L36.8997 61.7111L36.3354 58.7796L36.8663 58.6749L38.4839 60.35L38.1119 58.432L38.6679 58.3273L39.2321 61.2588Z" fill="#3C3C3C"/>
<path d="M31.127 62L30.291 61.9498L30.4708 58.9806L31.0309 59.0141L30.8846 61.4514L31.4948 61.4891L31.127 62Z" fill="#3C3C3C"/>
<path d="M27.0435 60.7855L27.5743 60.8944C27.5186 61.0839 27.4008 61.2492 27.2399 61.3634C27.1355 61.4354 27.0175 61.4851 26.8931 61.5096C26.7687 61.5341 26.6407 61.5328 26.5168 61.5058C26.294 61.4654 26.096 61.3391 25.9651 61.154C25.9006 61.0717 25.8551 60.976 25.832 60.8739C25.8088 60.7718 25.8086 60.6658 25.8313 60.5636C25.8546 60.4379 25.9159 60.3224 26.0069 60.2327C26.1081 60.1368 26.2317 60.0677 26.3663 60.0317C26.2127 59.9531 26.0872 59.8287 26.0069 59.6758C25.9341 59.5203 25.915 59.345 25.9525 59.1774C25.9757 59.053 26.025 58.935 26.0971 58.831C26.1691 58.7271 26.2623 58.6396 26.3705 58.5744C26.6074 58.4309 26.8909 58.3858 27.1605 58.4488C27.2899 58.4715 27.4133 58.5204 27.5232 58.5924C27.6331 58.6644 27.7273 58.758 27.8001 58.8675C27.9479 59.0889 28.0021 59.36 27.9505 59.6213L27.3904 59.4915C27.405 59.3622 27.374 59.2318 27.3026 59.123C27.2323 59.0326 27.131 58.9714 27.0184 58.9513C26.9593 58.9379 26.8982 58.9366 26.8386 58.9474C26.779 58.9581 26.7221 58.9808 26.6715 59.0141C26.6221 59.0443 26.5795 59.0845 26.5464 59.1321C26.5133 59.1796 26.4904 59.2336 26.4792 59.2905C26.4661 59.3558 26.4687 59.4233 26.4869 59.4874C26.5051 59.5515 26.5383 59.6103 26.5837 59.659C26.7082 59.7902 26.873 59.8758 27.0518 59.9019L26.9724 60.3793C26.87 60.3621 26.7655 60.3621 26.6631 60.3793C26.5951 60.3931 26.5326 60.4266 26.4834 60.4756C26.4357 60.5185 26.4034 60.5759 26.3914 60.639C26.3839 60.6758 26.3842 60.7138 26.3921 60.7506C26.4 60.7873 26.4154 60.822 26.4374 60.8525C26.4861 60.9175 26.558 60.961 26.638 60.974C26.7157 60.9916 26.7971 60.9812 26.8679 60.9447C26.9431 60.9136 27.0051 60.8573 27.0435 60.7855Z" fill="#3C3C3C"/>
<path d="M22.9844 60.4882L22.186 60.2076L23.1725 57.4018L23.7034 57.5861L22.8924 59.8852L23.4693 60.0904L22.9844 60.4882Z" fill="#3C3C3C"/>
<path d="M18.6958 57.9672C18.7369 57.8828 18.7955 57.8082 18.8675 57.7483C18.9396 57.6884 19.0235 57.6445 19.1138 57.6196C19.2012 57.5899 19.2937 57.5783 19.3856 57.5855C19.4776 57.5927 19.5672 57.6185 19.6489 57.6614C19.7312 57.703 19.8046 57.7603 19.8648 57.8303C19.925 57.9002 19.9709 57.9813 19.9998 58.069C20.0287 58.1567 20.0401 58.2492 20.0333 58.3413C20.0265 58.4334 20.0017 58.5233 19.9603 58.6058C19.9188 58.6883 19.8616 58.7618 19.7918 58.8221C19.722 58.8824 19.641 58.9284 19.5535 58.9574C19.466 58.9863 19.3736 58.9978 19.2817 58.991C19.1897 58.9842 19.1 58.9593 19.0177 58.9178C18.9335 58.8766 18.8591 58.818 18.7993 58.7458C18.7394 58.6736 18.6956 58.5895 18.6708 58.499C18.6387 58.4133 18.6244 58.3219 18.6287 58.2305C18.633 58.1391 18.6558 58.0495 18.6958 57.9672ZM18.909 58.0718C18.8507 58.1827 18.8387 58.3122 18.8756 58.432C18.8916 58.4904 18.9201 58.5445 18.9591 58.5908C18.9981 58.6371 19.0466 58.6743 19.1013 58.7C19.2105 58.7543 19.3366 58.7633 19.4524 58.7251C19.5111 58.7063 19.5653 58.6758 19.612 58.6355C19.6587 58.5952 19.6968 58.546 19.7241 58.4906C19.7529 58.4363 19.77 58.3766 19.7743 58.3153C19.7786 58.254 19.7701 58.1925 19.7492 58.1347C19.7327 58.0765 19.7045 58.0223 19.6662 57.9756C19.6279 57.9289 19.5804 57.8906 19.5266 57.863C19.4729 57.8355 19.4141 57.8194 19.3538 57.8157C19.2936 57.812 19.2332 57.8208 19.1765 57.8415C19.1186 57.8595 19.0649 57.8892 19.0189 57.9289C18.9729 57.9685 18.9355 58.0172 18.909 58.0718Z" fill="#3C3C3C"/>
<path d="M16.1505 57.1715L15.001 56.3884L15.2936 55.9696L16.0961 56.514L16.5141 56.1329C16.4818 56.1247 16.4509 56.112 16.4222 56.0952C16.3938 56.0833 16.3671 56.0679 16.3427 56.0492C16.2336 55.985 16.1397 55.8978 16.0676 55.7937C15.9954 55.6896 15.9467 55.571 15.9247 55.4461C15.9025 55.3178 15.9066 55.1862 15.9368 55.0595C15.967 54.9328 16.0226 54.8135 16.1003 54.7091C16.1735 54.5953 16.269 54.4976 16.3812 54.422C16.4933 54.3464 16.6196 54.2944 16.7524 54.2694C16.8839 54.2418 17.0198 54.2417 17.1514 54.2691C17.283 54.2965 17.4076 54.3507 17.5173 54.4285C17.7149 54.5565 17.8625 54.7487 17.9353 54.9729C18.002 55.2008 17.9887 55.4446 17.8977 55.6639L17.4086 55.3289C17.4214 55.2354 17.4099 55.1402 17.3752 55.0525C17.3427 54.9714 17.2857 54.9026 17.2122 54.8557C17.1632 54.8204 17.1073 54.7961 17.0481 54.7846C16.9889 54.773 16.928 54.7744 16.8694 54.7886C16.8076 54.8024 16.7491 54.8284 16.6975 54.8651C16.6458 54.9018 16.6019 54.9484 16.5685 55.0022C16.4944 55.1019 16.4628 55.2269 16.4807 55.3498C16.4868 55.4058 16.5054 55.4597 16.5351 55.5075C16.5647 55.5553 16.6047 55.5959 16.6521 55.6262C16.7039 55.6624 16.7646 55.6841 16.8276 55.689C16.9022 55.703 16.9787 55.703 17.0533 55.689L17.3752 56.0366L16.1505 57.1715Z" fill="#3C3C3C"/>
<path d="M13.4671 53.9218L13.8851 54.2945C13.697 54.5042 13.4344 54.632 13.1536 54.6504C13.022 54.6554 12.8907 54.6335 12.7678 54.586C12.6449 54.5385 12.533 54.4663 12.4388 54.3741C12.3112 54.2616 12.216 54.117 12.163 53.9553C12.1088 53.8062 12.1 53.6444 12.1379 53.4904C12.164 53.3347 12.2336 53.1895 12.3385 53.0717C12.4764 52.9281 12.6451 52.8179 12.8317 52.7492C13.1192 52.6523 13.419 52.5973 13.7221 52.5859L14.2069 52.5482L13.4211 51.8363L13.7722 51.451L15.2937 52.833L15.114 53.034L13.8057 53.1135C13.5711 53.1178 13.338 53.1516 13.1118 53.214C12.9879 53.255 12.8749 53.3237 12.7816 53.4151C12.7449 53.454 12.7166 53.5002 12.6985 53.5506C12.6804 53.601 12.6729 53.6546 12.6764 53.708C12.68 53.7615 12.6945 53.8136 12.719 53.8612C12.7436 53.9088 12.7777 53.9508 12.8192 53.9846C12.8621 54.023 12.9125 54.0521 12.9671 54.0702C13.0218 54.0882 13.0796 54.0947 13.1369 54.0893C13.263 54.0735 13.3798 54.0143 13.4671 53.9218Z" fill="#3C3C3C"/>
<path d="M10.75 51.2039L10.959 51.4384L10.1732 52.0917L9.81787 51.673L10.75 51.2039Z" fill="#3C3C3C"/>
<path d="M8.29614 49.6168L7.50195 48.4735L7.91995 48.1762L8.4717 48.9718L8.98165 48.7666C8.95657 48.7415 8.93149 48.7206 8.91059 48.6954C8.88853 48.6739 8.8689 48.6501 8.85207 48.6242C8.77725 48.5234 8.72444 48.4079 8.69708 48.2852C8.66972 48.1626 8.66841 48.0355 8.69324 47.9123C8.71858 47.7865 8.76856 47.6669 8.84031 47.5605C8.91206 47.4541 9.00414 47.3631 9.11123 47.2925C9.22048 47.2135 9.3444 47.1571 9.47569 47.1268C9.60699 47.0964 9.74302 47.0926 9.8758 47.1156C10.0086 47.1386 10.1354 47.188 10.2489 47.2608C10.3624 47.3336 10.4602 47.4284 10.5366 47.5396C10.679 47.7293 10.7485 47.9641 10.7324 48.2009C10.7163 48.4377 10.6156 48.6609 10.4488 48.8294L10.1102 48.3437C10.1585 48.2612 10.1831 48.167 10.1813 48.0715C10.1795 47.9837 10.1503 47.8988 10.0977 47.8286C10.0649 47.7787 10.0218 47.7365 9.97129 47.7047C9.92083 47.6729 9.86416 47.6523 9.8051 47.6443C9.74235 47.6344 9.67828 47.6371 9.61658 47.6522C9.55487 47.6673 9.49677 47.6945 9.44562 47.7323C9.34191 47.8004 9.26737 47.905 9.23663 48.0254C9.22335 48.0798 9.22208 48.1365 9.23291 48.1915C9.24374 48.2464 9.2664 48.2984 9.29933 48.3437C9.33522 48.397 9.38415 48.4403 9.44144 48.4693C9.50778 48.5046 9.58005 48.5273 9.65462 48.5363L9.83436 48.9551L8.29614 49.6168Z" fill="#3C3C3C"/>
<path d="M5.75058 45.5169L5.49561 45.0144L7.20102 44.1517L7.0798 43.913L7.54795 43.6785L7.66499 43.913L8.21256 43.6408L8.45918 44.135L7.91579 44.4072L8.50098 45.5672L8.03283 45.8017L5.75058 45.5169ZM7.44764 44.6459L6.56149 45.094L7.75695 45.2489L7.44764 44.6459Z" fill="#3C3C3C"/>
<path d="M5.15311 41.4338L5.26179 41.7312L4.29204 42.0453L4.1123 41.5343L5.15311 41.4338ZM5.43316 42.2169L5.53766 42.5101L4.5721 42.8284L4.40072 42.3175L5.43316 42.2169Z" fill="#3C3C3C"/>
<path d="M3.60237 39.4907L3.24707 37.9077L3.78628 37.7863L4.02036 38.8207L4.54285 38.7034L4.30877 37.69L4.83963 37.5685L5.0737 38.6071L5.83445 38.4354L5.60037 37.3968L6.14377 37.2754L6.4907 38.8416L3.60237 39.4907Z" fill="#3C3C3C"/>
<path d="M33.3426 29.4568C33.2464 28.6192 33.1419 27.8194 33.0249 27.0028C32.6445 24.3728 32.1889 21.7513 31.7333 19.1339C31.6455 18.6523 31.5535 18.1791 31.4658 17.7017C31.1933 17.8211 30.9452 17.99 30.7343 18.2001L25.8438 23.0914L33.3426 29.4568Z" fill="#3C3C3C"/>
<path d="M29.4341 34.9177L33.4844 30.7299C33.4844 30.5875 33.4552 30.4451 33.4384 30.3111L25.5802 23.3552L22.4243 26.5212L29.4341 34.9177Z" fill="#3C3C3C"/>
<path d="M33.2129 17.6138C33.2672 18.0325 33.3299 18.4513 33.3843 18.8701C33.727 21.5252 34.0363 24.1802 34.2871 26.852C34.3749 27.7942 34.446 28.7407 34.5087 29.6913L40.0053 24.0336L34.1868 18.2001C33.912 17.9316 33.5785 17.7309 33.2129 17.6138Z" fill="#3C3C3C"/>
<path d="M34.7969 30.2818L47.0608 31.6135C46.9557 31.1774 46.7347 30.778 46.4213 30.4577L40.5986 24.6283L34.7969 30.2818Z" fill="#3C3C3C"/>
<path d="M32.3727 39.6457L29.0287 35.906L24.6899 40.1356L29.267 44.7422C29.928 43.9489 30.5314 43.1092 31.0727 42.2295C31.575 41.4048 32.0097 40.5407 32.3727 39.6457Z" fill="#3C3C3C"/>
<path d="M33.5809 34.8549C33.6803 33.7399 33.6719 32.618 33.5558 31.5046L29.7061 35.2736L32.6905 38.85C33.1524 37.5607 33.4515 36.2185 33.5809 34.8549Z" fill="#3C3C3C"/>
<path d="M32.8828 40.2026C32.502 41.0068 32.0633 41.7822 31.5703 42.5227C30.976 43.4164 30.3181 44.2659 29.6016 45.0646L30.7343 46.1828C31.1941 46.641 31.8163 46.8983 32.4648 46.8983C33.1134 46.8983 33.7355 46.641 34.1953 46.1828L36.3187 44.0512L32.8828 40.2026Z" fill="#3C3C3C"/>
<path d="M34.9141 30.7885L42.8559 37.5141L46.4214 33.921C46.6933 33.6454 46.8942 33.3076 47.0066 32.9368L34.9141 30.7885Z" fill="#3C3C3C"/>
<path d="M42.2459 38.1088L34.5967 31.3371C34.6613 32.5446 34.6194 33.7553 34.4713 34.9554C34.2592 36.5074 33.8373 38.0233 33.2173 39.4614L36.7117 43.6492L42.2459 38.1088Z" fill="#3C3C3C"/>
<path d="M28.7653 35.5961L21.4881 27.455L18.491 30.4577C18.0336 30.9183 17.7769 31.5417 17.7769 32.1914C17.7769 32.8412 18.0336 33.4645 18.491 33.9252L24.5269 39.9723L28.7653 35.5961Z" fill="#3C3C3C"/>
</g>
<defs>
<clipPath id="clip0_724_2923">
<rect width="63" height="62" fill="white" transform="translate(0.638672)"/>
</clipPath>
</defs>
</svg>
