<svg width="100" height="62" viewBox="0 0 100 62" fill="none" xmlns="http://www.w3.org/2000/svg">
<path d="M58.829 25.3888C57.4787 24.3476 55.1096 23.5009 53.0977 24.1061C52.1664 24.3857 51.1206 25.1655 50.4315 26.091C50.4081 26.123 50.3846 26.1551 50.3619 26.1873C50.3431 26.0328 50.3297 25.9124 50.3238 25.8655C50.2227 25.0664 48.546 24.2774 48.1031 24.2774H48.0856C47.782 24.2934 47.5471 24.5274 47.5397 24.8244C47.513 25.9626 48.0355 28.6415 48.0957 28.9437C48.1204 29.0675 48.1539 29.23 48.1941 29.4273C48.4369 30.5989 48.9415 33.0371 49.2211 35.5415C49.4807 37.8701 48.8196 39.489 47.0519 43.8151L47.0245 43.8813C45.8322 46.8017 45.2682 49.6699 45.3017 52.6511C45.3077 53.192 45.481 58.0123 49.6493 60.377C50.3083 60.7508 51.6431 61.253 53.1305 61.253C54.5703 61.253 56.1527 60.7822 57.4019 59.2709C58.0756 58.4544 58.5774 57.2539 58.8537 55.7981C58.9595 55.2377 59.0056 54.6132 58.9989 53.8334C58.9888 52.7361 57.08 51.7483 56.4732 51.6814C56.0524 51.6353 55.8027 51.88 55.7419 52.1429L55.7198 52.2365L55.7318 52.3328C55.9607 54.0762 55.4663 56.5404 53.8397 57.8311C53.3245 58.2397 52.2688 58.8262 50.9888 58.1648C49.678 57.4867 48.8953 55.4256 48.7855 52.3629C48.7006 49.9909 49.6051 47.1494 50.1451 45.4521L50.2006 45.2749C50.396 44.663 50.6388 44.0224 50.8971 43.3443C51.702 41.2237 52.6146 38.8197 52.4032 36.2389C52.3202 35.2239 52.1088 34.2207 51.9221 33.3353C51.8499 32.9956 51.7836 32.678 51.7321 32.3944C51.4391 30.7915 51.4652 29.9884 51.8352 29.2139C52.0787 28.7044 52.541 28.1954 53.1365 27.7822C53.4476 27.5655 55.3357 26.7543 56.7836 28.1299C58.3151 29.5837 59.0571 31.7772 58.675 33.7172C58.4101 35.058 57.9512 35.8926 57.3798 36.0678C56.8613 36.2256 56.2283 35.8511 55.7968 35.4339L55.7686 35.3944C55.6174 35.1784 55.216 34.6059 55.0568 34.0081C54.947 33.5921 54.6373 33.4503 54.4004 33.4531C53.5119 33.4671 52.721 35.8418 52.715 35.8659L52.6755 36.0404L52.7485 36.2035C53.4878 37.852 55.4736 38.7969 57.5818 38.5C58.5386 38.3656 59.9544 37.9944 61.1861 36.3279C62.1937 34.9664 62.436 33.1454 62.4199 32.2835C62.3998 31.1318 62.1047 29.9609 61.4912 28.5974C61.3146 28.2068 60.2447 26.4808 58.829 25.3888Z" fill="#3C3C3C"/>
<path d="M29.6457 30.9482C29.5523 28.5501 29.6578 26.8764 29.7082 26.072C29.7251 25.7956 29.7351 25.6438 29.7318 25.5441C29.7002 24.4958 28.2291 23.2477 27.2178 23.1595C27.0509 23.1446 26.7975 23.1799 26.542 23.4292C25.8945 24.0614 25.5293 25.7819 25.6322 27.6928C25.6349 27.8351 25.647 28.0249 25.6611 28.2505C25.7123 29.0387 25.7983 30.358 25.5199 31.4334C25.1979 32.6754 24.8253 33.1003 23.8605 33.3266C22.2253 33.7109 21.0896 32.3448 20.9336 32.0602C19.7778 29.9473 20.7735 28.1557 21.3088 27.1928C21.4883 26.8696 21.5972 26.6738 21.6221 26.4697C21.6537 26.217 21.5085 26.0354 21.4116 25.9155C21.4002 25.9012 20.2397 24.489 19.2728 24.407L19.0925 24.3915L18.9407 24.489C18.4921 24.7757 18.0249 26.2387 17.885 27.3723C17.6154 29.5645 17.7397 31.371 18.2642 32.895C18.8277 34.5322 19.685 35.6631 20.8118 36.256C22.513 37.1512 24.4912 37.0326 26.5467 35.9145C26.8358 37.8783 27.061 39.6923 27.2171 41.305C27.4322 43.5249 27.4168 46.127 27.18 47.4911C26.304 52.5455 23.9277 54.5676 22.2172 55.6497C21.0647 56.3781 18.3805 56.8701 16.3405 55.8984C14.5452 55.0432 13.9071 53.4908 13.9051 52.4202C13.9017 50.2802 14.5358 49.7767 15.0455 49.3715C15.1746 49.2698 15.3077 49.1634 15.4254 49.0408L15.4839 48.9785L15.5209 48.9026C15.9203 48.0738 15.143 46.8446 14.4181 46.438C14.1889 46.308 13.8748 46.1311 13.5212 46.1534C12.8602 46.1961 11.2391 47.2417 10.6252 49.0042C9.68317 51.7093 11.1282 54.1569 11.7938 55.0832C12.8347 56.5333 14.4491 57.751 16.1125 58.3392C17.2375 58.7376 18.6225 59.012 20.0736 59.012C21.7176 59.012 23.4463 58.6591 24.9713 57.7341C28.4381 55.632 30.1702 52.7691 30.9509 47.8503C31.5701 43.9512 30.6577 37.9738 30.0532 34.0186C29.8373 32.6016 29.6666 31.4828 29.6457 30.9482Z" fill="#3C3C3C"/>
<path d="M12.8807 40.112C14.9492 39.3628 15.7858 38.0437 16.1001 37.3249C17.1542 34.9176 17.0084 31.4212 17.0071 31.386C16.9766 30.7201 14.4937 28.4737 13.8288 28.3566C13.5271 28.3039 13.2526 28.4514 13.1433 28.7241C13.0756 28.8934 13.0703 28.98 13.1671 30.6869C13.2242 31.696 13.2951 32.9528 13.2685 33.4611C13.1797 35.1815 12.6964 36.4214 11.8484 37.1327C10.5616 38.1263 9.31985 37.5097 8.5866 36.6014C7.18904 34.8688 6.35104 31.4537 6.09712 26.4515L6.07988 26.132C6.00828 24.9706 5.97712 23.8248 5.95326 22.7398C5.84452 20.8266 5.79878 13.4033 6.30927 9.79066C6.72363 6.86073 7.31633 4.75453 8.0118 3.71496C8.43212 3.13089 9.30725 2.27134 9.86615 2.45679C10.3256 2.60907 10.5828 4.42357 9.93709 6.92097C9.7183 7.7663 9.89664 8.04176 10.545 8.44039L10.5987 8.47288C10.8288 8.61433 11.747 8.86069 12.6719 8.39978L12.8614 8.30503L12.9351 8.10267C13.425 6.75515 13.6478 5.53014 13.6146 4.35792C13.5775 3.02598 13.0956 1.96475 12.1401 1.11537C10.7791 -0.0954339 8.58594 -0.356002 7.04053 0.508951C6.36363 0.887282 4.57095 2.57387 3.65338 5.11661C2.6198 7.98085 2.41693 11.6099 2.30754 13.5598L2.29362 13.8169C2.13782 16.5465 1.74467 25.9831 3.22046 32.7998C3.66797 34.8695 5.35524 37.8021 8.00186 39.3513C9.24295 40.0782 10.4529 40.3381 11.4334 40.3373C12.0082 40.3373 12.5042 40.2487 12.8807 40.112Z" fill="#3C3C3C"/>
<path d="M89.7549 35.4551C89.5567 34.8845 88.9767 34.5135 88.1642 34.4371C88.1108 34.4312 86.8762 34.3236 86.545 34.8845C86.4256 35.0886 86.4405 35.3325 86.5841 35.5217C86.8903 35.9266 87.7676 37.8094 86.8546 38.6546C85.5469 39.8683 83.8301 39.145 83.1051 38.5933C82.0456 37.7866 81.3046 36.0153 81.0301 35.0828C80.6167 33.8169 80.1912 32.6189 79.1709 30.7713C77.8768 28.4301 76.1093 26.8492 75.1477 26.6751C74.6668 26.5864 74.1975 26.7299 73.863 27.067C73.5069 27.4251 73.3653 27.941 73.4853 28.4451L73.5023 28.5018C74.097 30.125 74.0754 31.8115 73.8704 32.4904C73.7059 33.0343 72.7915 34.7228 71.2984 35.3527C70.5094 35.6847 69.682 35.6475 68.8404 35.2405C68.448 35.0508 67.7533 34.4201 67.4479 33.4608C67.143 32.5067 67.2968 31.4887 67.9038 30.4368C68.3178 29.7188 69.5235 28.7059 69.9349 28.8292C70.1924 28.9062 70.2451 29.0163 70.2632 29.0522C70.351 29.2342 70.3011 29.5439 70.117 29.9724L70.09 30.0356C70.0057 30.2451 69.7488 30.8809 70.1567 31.3198C70.5614 31.7567 71.227 31.5826 71.5122 31.5076L71.6255 31.4783C72.7834 31.0961 73.1562 30.1035 73.0133 29.3425C72.8434 28.4392 72.1002 27.4505 71.6511 27.112C69.6098 25.5724 67.0655 26.0523 65.7066 27.2835C64.596 28.2899 64.0539 29.8628 63.9648 30.4667C63.8879 30.9904 63.8064 32.6437 64.3471 33.9825C65.2218 36.1471 67.087 37.1997 67.6367 37.4703C70.3247 38.8013 72.8258 38.6808 75.0742 37.1103C76.0628 36.4197 76.6886 35.5204 77.0669 34.7645C77.1984 35.1291 77.3447 35.553 77.4911 36.0029C78.4359 38.9005 80.4704 40.7024 81.6073 41.2059C82.6 41.6454 83.6183 41.832 84.561 41.8313C85.9367 41.8313 87.1486 41.4348 87.8688 40.8531C89.9869 39.1411 90.2344 36.9486 89.7549 35.4551Z" fill="#3C3C3C"/>
<path d="M44.1852 26.7191C41.9575 24.9902 40.0158 25.379 38.9725 25.5873L38.8123 25.6195L38.7382 25.6392C36.7195 26.3132 35.5917 27.5028 34.9387 28.3791C34.81 27.9495 34.6288 27.5245 34.3898 27.2197C33.9058 26.6035 32.7948 25.9578 31.8564 25.9972L31.1572 26.0242L31.3404 26.6581C31.6522 27.7374 31.9991 30.4693 32.0809 31.7844C32.1998 33.6875 32.0956 35.5951 32.0341 36.7367C32.0124 37.1375 31.9977 37.4074 31.9984 37.5704C31.9809 37.8981 32.1284 38.2266 32.4368 38.5471C32.9941 39.1252 34.073 39.6356 34.5645 39.6474L34.5974 39.6487L34.6296 39.6461C35.2051 39.5975 35.5672 39.0989 35.9497 36.5107C36.0861 35.5885 36.4064 33.43 37.5251 31.4934C38.5488 29.7211 39.6108 28.613 40.4395 28.452C40.8722 28.3686 41.4911 28.3686 41.9833 28.8475C42.5029 29.3526 43.2322 30.7491 42.2813 34.4225C42.0274 35.4059 41.2688 37.1164 40.3115 38.4815C39.834 39.1627 39.006 40.1296 38.3411 40.9067C37.6754 41.6838 37.2915 42.1357 37.1482 42.3775C36.9782 42.6645 37.0657 43.1677 37.2496 43.4883C37.4468 43.8338 37.7712 44.0407 38.1621 44.069C38.1943 44.0716 38.2271 44.0723 38.26 44.0723C39.1739 44.0723 40.4563 43.2223 40.8891 42.8819C42.8455 41.3376 45.2341 39.1094 46.3347 35.5412C47.7443 30.9764 45.5452 27.7741 44.1852 26.7191Z" fill="#3C3C3C"/>
<path d="M75.2864 18.0096C75.0539 18.3168 74.8918 18.6387 74.6932 18.9646C74.4474 19.3686 74.0407 19.6565 73.6058 19.8061C73.1033 19.9798 72.4514 20.1941 71.9227 20.1941C71.3525 20.1948 70.5243 19.7694 70.5333 19.8749C70.4988 19.4548 70.3775 19.6124 69.7958 19.5436C68.8016 19.4969 68.0558 18.1284 67.8822 17.279C67.6702 16.2357 67.6184 15.3602 67.9415 14.3611C68.3036 13.2371 69.5653 12.4143 70.6482 12.1538C71.083 12.0496 71.5677 11.9181 72.0108 11.8947C72.53 11.8674 73.1378 12.029 73.6058 12.2453C74.0119 12.433 74.3095 12.7556 74.6383 13.0761C74.9748 13.404 75.1715 13.943 75.3515 14.3758C75.6005 14.9776 75.7372 15.5672 75.7448 16.2264C75.7525 16.945 75.7155 17.4433 75.2864 18.0096ZM76.2544 14.3264C75.8681 13.2939 75.453 12.449 74.4985 11.9168C73.7444 11.496 72.7694 11.1039 71.8946 11.2282C70.638 11.4065 69.5857 11.4272 68.5839 12.2694C67.6217 13.0775 67.3427 13.8235 67.001 15.0357C66.7009 16.1062 67.0317 17.4112 67.5297 18.3896C67.9664 19.2478 68.8841 20.4546 69.8603 20.4439C69.8935 20.4432 69.9248 20.4392 69.9535 20.4325C70.3769 20.8072 71.1833 20.8326 71.6749 20.8921C72.7253 21.0202 73.7374 20.6108 74.6472 20.0452C74.9735 19.8429 75.2373 19.4521 75.4033 19.1056C75.6465 18.5966 76.0686 18.2193 76.2736 17.7031C76.6886 16.6565 76.6362 15.3496 76.2544 14.3264Z" fill="#3C3C3C"/>
<path d="M73.3417 14.1611C72.6207 14.0936 71.2291 14.8367 70.7263 15.4237C70.4114 14.6833 70.9256 13.8169 71.0653 13.5519C71.3284 13.0528 72.2192 12.6436 72.7046 13.0183C73.1638 13.3727 73.6122 12.5861 73.1591 12.2359C72.2488 11.5332 70.7028 12.2426 70.249 13.1833C69.8154 14.0773 69.7394 15.4751 70.5994 16.0723C70.6041 16.0912 70.6108 16.1095 70.6155 16.1284C70.5806 16.4408 70.1564 16.3306 69.3911 16.3908C68.6264 16.451 68.0868 15.6956 67.9518 15.2121C67.8169 14.7285 68.2666 14.1396 67.8766 14.2004C67.4865 14.2606 67.5302 15.6868 68.2371 16.3982C68.6332 16.7979 70.351 16.7532 70.7464 16.3982C71.2358 16.5267 70.8398 17.1705 70.6209 17.3876C70.3389 17.6683 69.5717 17.8982 69.2474 17.4803C68.8916 17.0211 68.2592 17.6669 68.6117 18.1213C69.5743 19.3629 71.3646 18.0043 71.7171 16.6559C71.7392 16.6464 71.7614 16.639 71.7829 16.6275C72.0078 16.8851 72.2012 17.1739 72.3112 17.5012C72.381 17.7108 72.5025 18.5534 72.2555 18.7624C71.9709 18.5663 71.4674 19.0289 71.8426 19.3061C72.4355 19.7443 72.9994 18.8321 73.0651 18.3093C73.2302 16.9947 72.1038 15.1377 72.0548 15.0762C72.3415 14.9287 72.8905 15.0477 73.1516 15.0592C73.8505 15.0904 74.1755 15.6314 74.1748 16.2698C74.1748 16.8527 75.0743 16.854 75.075 16.2698C75.075 15.2236 74.4601 14.266 73.3417 14.1611Z" fill="#3C3C3C"/>
</svg>
